# xmcd
#
# Track frame offsets:
#	150
#	20174
#	42616
#	66528
#	98854
#	110545
#	128504
#	153610
#	172644
#	196247
#
# Disc length: 2882 seconds
#
# Revision: 1
# Processed by: cddbd v1.5.2PL0 Copyright (c) Steve Scherf et al.
# Submitted via: EasyCDDAExtractor 16.0.4.1
#
DISCID=870b400a
DTITLE=Marek Miś - Niebajka
DYEAR=2012
DGENRE=Blues
TTITLE0=Blues bezrobotnego
TTITLE1=Modlitwa
TTITLE2=Lęki poranne
TTITLE3=Parias
TTITLE4=Siódma w nocy
TTITLE5=Niebajka
TTITLE6=Czwarte piwo
TTITLE7=Zespół Otella
TTITLE8=Pytania
TTITLE9=Siódma w nocy mix
EXTD=
EXTT0=
EXTT1=
EXTT2=
EXTT3=
EXTT4=
EXTT5=
EXTT6=
EXTT7=
EXTT8=
EXTT9=
PLAYORDER=
